# xmcd CD database file
#
# Track frame offsets:
#	150
#	9592
#	23420
#	44054
#	66680
#	83078
#
# Disc length: 1340 seconds
#
# Revision: 0
# Processed by: cddbd v1.5.1PL0 Copyright (c) Steve Scherf et al.
# Submitted via: CDex 1.51
#
DISCID=48053a06
DTITLE=Papa Joes Jazzmen - Kölsche Tön op Dixieland
DYEAR=1900
DGENRE=Jazz
TTITLE0=Sweet Georgia Brown
TTITLE1=Unsere Stadt Colonia
TTITLE2=Ne Kölsche Dixieland
TTITLE3=Dä Flachmann
TTITLE4=Mensch Meier
TTITLE5=Et Heiermann Leed
EXTD=
EXTT0=
EXTT1=
EXTT2=
EXTT3=
EXTT4=
EXTT5=
PLAYORDER=
